#!OML:ASF H:\Pregnant\Project 1\Capture day 1\Session 1\femalepreg.ASF
:FULLY-SPECIFIED
:DEGREES
736
root 6.24721 15.6036 14.1067 16.569 -24.0915 -0.995257
lowerback -20.5879 0.193277 1.03532
upperback -3.78413 -0.0931416 0.717893
thorax 7.39676 -0.0552936 0.157195
lowerneck -16.1919 5.48093 7.70258
upperneck 18.6224 5.43872 0.548994
head 8.70964 3.15852 -0.401771
rclavicle 1.14394e-014 1.39149e-015
rhumerus -38.6603 8.94986 -87.3097
rradius 25.995
rwrist -5.92771
rhand -13.9151 -15.0885
rfingers 7.12502
rthumb 12.211 -44.712
lclavicle 1.14394e-014 1.39149e-015
lhumerus -34.5019 -19.0568 89.2233
lradius 30.2732
lwrist 38.7322
lhand -25.1496 2.98058
lfingers 7.12502
lthumb 1.36709 32.9559
rfemur -31.502 25.6362 19.614
rtibia 38.0816
rfoot -17.4904 -6.49865
rtoes -3.07881
lfemur -20.6282 -17.292 -18.4932
ltibia 20.6982
lfoot -11.3012 4.82749
ltoes -14.9446
737
root 6.25377 15.6092 14.1161 16.5771 -24.2734 -0.871085
lowerback -20.719 0.228847 0.84585
upperback -3.82391 -0.00480068 0.678352
thorax 7.42355 -0.0170144 0.246111
lowerneck -16.3101 5.45023 7.63134
upperneck 18.664 5.3822 0.644693
head 8.73804 3.13758 -0.361819
rclavicle -2.44909e-014 3.97569e-015
rhumerus -38.8136 9.04515 -87.3393
rradius 26.0327
rwrist -5.86773
rhand -13.8907 -15.0364
rfingers 7.12502
rthumb 12.2345 -44.6586
lclavicle -2.44909e-014 3.97569e-015
lhumerus -34.6342 -19.4471 89.4676
lradius 30.5606
lwrist 38.6572
lhand -25.1298 2.88429
lfingers 7.12502
lthumb 1.38617 32.8595
rfemur -31.5683 25.4942 19.4267
rtibia 38.0848
rfoot -17.5954 -6.24001
rtoes -2.96545
lfemur -20.2935 -17.2756 -18.6669
ltibia 20.0722
lfoot -11.0838 4.87049
ltoes -14.8972
738
root 6.26013 15.6147 14.1249 16.5754 -24.4555 -0.736381
lowerback -20.838 0.261656 0.643604
upperback -3.8603 0.0838796 0.63306
thorax 7.44701 0.0212106 0.336417
lowerneck -16.4294 5.41518 7.55028
upperneck 18.692 5.31879 0.756594
head 8.76115 3.11426 -0.315877
rclavicle -4.22728e-014 4.77083e-015
rhumerus -38.9398 9.13608 -87.3691
rradius 26.0291
rwrist -5.74036
rhand -13.8968 -14.9725
rfingers 7.12502
rthumb 12.2286 -44.595
lclavicle -4.22728e-014 4.77083e-015
lhumerus -34.7728 -19.8205 89.701
lradius 30.8697
lwrist 38.6242
lhand -25.0763 2.78699
lfingers 7.12502
lthumb 1.43791 32.7619
rfemur -31.6353 25.3353 19.2368
rtibia 38.0975
rfoot -17.701 -5.96548
rtoes -2.85336
lfemur -19.9518 -17.232 -18.8539
ltibia 19.4384
lfoot -10.8636 4.87455
ltoes -14.8099
739
root 6.26623 15.62 14.1329 16.566 -24.6317 -0.601356
lowerback -20.9355 0.287914 0.430617
upperback -3.89411 0.166895 0.589903
thorax 7.46126 0.0564696 0.433784
lowerneck -16.5688 5.37816 7.4602
upperneck 18.7228 5.25026 0.881822
head 8.78813 3.08941 -0.264092
rclavicle 4.43103e-014 -7.95139e-016
rhumerus -39.0374 9.235 -87.3964
rradius 25.9869
rwrist -5.56361
rhand -13.9251 -14.8992
rfingers 7.12502
rthumb 12.2013 -44.5233
lclavicle 4.43103e-014 -7.95139e-016
lhumerus -34.9113 -20.1588 89.9188
lradius 31.1988
lwrist 38.6335
lhand -24.944 2.73138
lfingers 7.12502
lthumb 1.56563 32.7054
rfemur -31.6982 25.1693 19.0549
rtibia 38.1141
rfoot -17.8011 -5.68563
rtoes -2.74356
lfemur -19.6101 -17.1684 -19.0427
ltibia 18.8107
lfoot -10.6447 4.85172
ltoes -14.6946
740
root 6.27209 15.625 14.1401 16.5522 -24.7983 -0.471546
lowerback -21.011 0.309635 0.21404
upperback -3.92773 0.245304 0.547394
thorax 7.46349 0.0894783 0.532705
lowerneck -16.7249 5.33785 7.37114
upperneck 18.7588 5.17384 1.0141
head 8.81967 3.06185 -0.210584
rclavicle 1.23743e-014 -3.18055e-015
rhumerus -39.1038 9.32258 -87.4154
rradius 25.8973
rwrist -5.33243
rhand -13.9673 -14.8111
rfingers 7.12502
rthumb 12.1606 -44.4376
lclavicle 1.23743e-014 -3.18055e-015
lhumerus -35.049 -20.4701 90.1195
lradius 31.5409
lwrist 38.6872
lhand -24.692 2.76796
lfingers 7.12502
lthumb 1.80902 32.74
rfemur -31.7555 25.0072 18.8841
rtibia 38.13
rfoot -17.8896 -5.41519
rtoes -2.66691
lfemur -19.2778 -17.0945 -19.2254
ltibia 18.204
lfoot -10.4327 4.81019
ltoes -14.5502
741
root 6.27773 15.6297 14.1466 16.5374 -24.9499 -0.356009
lowerback -21.0633 0.329303 0.00553509
upperback -3.96247 0.319772 0.503928
thorax 7.45174 0.120884 0.624862
lowerneck -16.9017 5.29373 7.28204
upperneck 18.8069 5.0862 1.16401
head 8.85857 3.03123 -0.151826
rclavicle -5.61877e-015 -2.0276e-014
rhumerus -39.1375 9.38204 -87.4248
rradius 25.7565
rwrist -5.04812
rhand -14.0196 -14.7169
rfingers 7.12502
rthumb 12.1102 -44.3465
lclavicle -5.61877e-015 -2.0276e-014
lhumerus -35.1869 -20.7534 90.2977
lradius 31.8944
lwrist 38.7715
lhand -24.3071 2.93405
lfingers 7.12502
lthumb 2.18078 32.9027
rfemur -31.803 24.8545 18.7333
rtibia 38.1398
rfoot -17.9662 -5.16299
rtoes -2.60869
lfemur -18.9643 -17.0114 -19.393
ltibia 17.6354
lfoot -10.2342 4.75525
ltoes -14.4047
742
root 6.28312 15.6338 14.1524 16.5213 -25.0854 -0.25757
lowerback -21.0954 0.344225 -0.192568
upperback -3.99484 0.38595 0.461118
thorax 7.4316 0.148663 0.709473
lowerneck -17.1007 5.24841 7.20056
upperneck 18.8681 4.99058 1.32287
head 8.90612 2.99878 -0.091482
rclavicle 7.34261e-015 -2.51463e-014
rhumerus -39.1342 9.42172 -87.4264
rradius 25.5698
rwrist -4.71426
rhand -14.0663 -14.6366
rfingers 7.12502
rthumb 12.0652 -44.2688
lclavicle 7.34261e-015 -2.51463e-014
lhumerus -35.3165 -21.0048 90.4491
lradius 32.2493
lwrist 38.8705
lhand -23.7701 3.27083
lfingers 7.12502
lthumb 2.69937 33.2335
rfemur -31.8366 24.7224 18.6044
rtibia 38.14
rfoot -18.0243 -4.94141
rtoes -2.58863
lfemur -18.6745 -16.9281 -19.542
ltibia 17.1192
lfoot -10.0564 4.69741
ltoes -14.2581
743
root 6.28827 15.6376 14.1577 16.5065 -25.2021 -0.181188
lowerback -21.1122 0.35894 -0.36773
upperback -4.02668 0.447346 0.413175
thorax 7.40384 0.174833 0.774023
lowerneck -17.309 5.19945 7.12049
upperneck 18.9383 4.88242 1.50855
head 8.95785 2.96383 -0.0234879
rclavicle 3.03799e-014 -2.5842e-015
rhumerus -39.0991 9.42243 -87.4218
rradius 25.3367
rwrist -4.3317
rhand -14.0973 -14.5754
rfingers 7.12502
rthumb 12.0353 -44.2093
lclavicle 3.03799e-014 -2.5842e-015
lhumerus -35.4465 -21.2454 90.5779
lradius 32.601
lwrist 38.9831
lhand -23.1145 3.71245
lfingers 7.12502
lthumb 3.33248 33.6662
rfemur -31.8544 24.6195 18.5004
rtibia 38.128
rfoot -18.0657 -4.76098
rtoes -2.62353
lfemur -18.4143 -16.8491 -19.6669
ltibia 16.6656
lfoot -9.90241 4.64264
ltoes -14.1383
744
root 6.29318 15.6409 14.1624 16.4956 -25.298 -0.128156
lowerback -21.1183 0.368728 -0.519222
upperback -4.0542 0.497455 0.361425
thorax 7.3753 0.196226 0.817827
lowerneck -17.5249 5.15194 7.04904
upperneck 19.0098 4.76865 1.7133
head 9.0116 2.92924 0.049169
rclavicle 1.79124e-014 1.39149e-014
rhumerus -39.0271 9.39664 -87.4163
rradius 25.0674
rwrist -3.90845
rhand -14.0978 -14.5514
rfingers 7.12502
rthumb 12.0348 -44.1853
lclavicle 1.79124e-014 1.39149e-014
lhumerus -35.5685 -21.4773 90.6827
lradius 32.9374
lwrist 39.1079
lhand -22.3453 4.23158
lfingers 7.12502
lthumb 4.07537 34.1723
rfemur -31.859 24.55 18.4215
rtibia 38.1039
rfoot -18.0873 -4.62842
rtoes -2.70198
lfemur -18.1876 -16.7742 -19.7647
ltibia 16.2772
lfoot -9.77311 4.58685
ltoes -14.0236
745
root 6.29785 15.6439 14.1666 16.4857 -25.3745 -0.0950748
lowerback -21.1136 0.373823 -0.650192
upperback -4.07879 0.537288 0.305026
thorax 7.34454 0.213248 0.842024
lowerneck -17.7393 5.10428 6.9801
upperneck 19.0795 4.64827 1.94268
head 9.06432 2.8947 0.128957
rclavicle -6.75868e-015 1.17283e-014
rhumerus -38.9266 9.34743 -87.4125
rradius 24.7703
rwrist -3.46489
rhand -14.0817 -14.5461
rfingers 7.12502
rthumb 12.0504 -44.1791
lclavicle -6.75868e-015 1.17283e-014
lhumerus -35.6865 -21.7218 90.7786
lradius 33.2484
lwrist 39.2566
lhand -21.5241 4.76772
lfingers 7.12502
lthumb 4.86833 34.6918
rfemur -31.8502 24.5157 18.3637
rtibia 38.0699
rfoot -18.0859 -4.54126
rtoes -2.78653
lfemur -17.9915 -16.7069 -19.8393
ltibia 15.9526
lfoot -9.6661 4.5333
ltoes -13.9056
746
root 6.30229 15.6467 14.1701 16.477 -25.4321 -0.0741759
lowerback -21.1004 0.375466 -0.767414
upperback -4.10424 0.569998 0.242389
thorax 7.30863 0.227281 0.849607
lowerneck -17.9322 5.05299 6.90923
upperneck 19.1339 4.52034 2.19442
head 9.10773 2.85892 0.214966
rclavicle 6.13918e-014 1.19271e-015
rhumerus -38.8042 9.2584 -87.4002
rradius 24.4499
rwrist -2.99306
rhand -14.035 -14.5647
rfingers 7.12502
rthumb 12.0954 -44.1951
lclavicle 6.13918e-014 1.19271e-015
lhumerus -35.8134 -22.0061 90.8865
lradius 33.53
lwrist 39.4318
lhand -20.707 5.28599
lfingers 7.12502
lthumb 5.65725 35.1905
rfemur -31.8334 24.513 18.3184
rtibia 38.029
rfoot -18.0696 -4.50036
rtoes -2.93268
lfemur -17.8273 -16.6427 -19.8971
ltibia 15.6854
lfoot -9.57987 4.47113
ltoes -13.7727
